<?xml version="1.0" encoding="UTF-8"?><svg id="Layer_1" xmlns="http://www.w3.org/2000/svg" viewBox="0 0 600 433.73"><path d="M339.93,433.73c-78.82,0-142.94-64.13-142.94-142.94s64.13-142.94,142.94-142.94,142.94,64.13,142.94,142.94-64.13,142.94-142.94,142.94ZM339.93,186.04c-57.76,0-104.75,46.99-104.75,104.75s46.99,104.75,104.75,104.75,104.75-46.99,104.75-104.75-46.99-104.75-104.75-104.75Z"/><path d="M256.96,119.41c49.8-39.5,125.5-41.6,174.07,1.06-62.19-25.76-111.43-23.4-174.07-1.06h0Z"/><path d="M262.6,290.79c-5.87-42.42,34.9-83.22,77.33-77.33-40.92,4.46-72.9,36.4-77.33,77.33h0Z"/><path d="M67.7,92.78h0c.72-1.75,17.92-42.81,50.63-42.81h106c0,7.11-5.76,12.87-12.87,12.87h-93.13c-15.27,0-28.12,6.89-37.24,14.75-6.15,5.3-8.07,8.23-13.39,15.18Z"/><path d="M197.84,30.29h-52.25c0-7.11,5.76-12.87,12.87-12.87h26.5c7.11,0,12.87,5.76,12.87,12.87h0Z"/><path d="M592.86,93.01c-3.31-20.41-24.15-35.45-44.82-34.16l-11.6-.4c-13.82-.48-48.81-1.69-66.01-2.29L436.47,2.97l-1.9-2.97h-180.7c-7.11,0-12.87,5.76-12.87,12.87h0s186.52,0,186.52,0l33.88,53.06,1.97,3.09,3.45-.12c15.2-.53,54.93-1.9,69.62-2.41,0,0,11.6-.4,11.6-.4,18.46-2.29,36.88,8.88,41.68,27.63,2.58,12.74,1.65,32.55,2.59,45.98,0,0,.8-23.21.8-23.21-.02-7.03,1.32-16.52-.26-23.48Z"/><path d="M90.86,423.64c-17.54,0-33.27-3.18-46.76-9.46-13.7-6.37-24.57-15.35-32.31-26.7-7.83-11.46-11.79-24.69-11.79-39.29,0-11.41,2.39-22.15,7.09-31.92,4.71-9.78,11.24-18.05,19.4-24.58,3.72-2.97,7.68-5.46,11.84-7.46-6.64-3.94-12.38-9.26-17.16-15.9-8.11-11.27-12.22-24.43-12.22-39.1,0-13.8,3.64-26.35,10.82-37.29,7.09-10.82,16.92-19.45,29.21-25.64,12.17-6.11,26.26-9.21,41.88-9.21s29.22,3.1,41.45,9.2c12.35,6.18,22.21,14.81,29.32,25.64,7.18,10.96,10.82,23.51,10.82,37.29,0,14.66-4.11,27.81-12.21,39.09-4.77,6.64-10.47,11.94-17.02,15.88,4.16,2,8.11,4.5,11.85,7.49,8.14,6.51,14.7,14.77,19.47,24.55,4.77,9.79,7.19,20.53,7.19,31.95,0,14.62-4,27.84-11.89,39.31-7.81,11.35-18.73,20.33-32.48,26.69-13.53,6.27-29.18,9.46-46.5,9.46ZM90.86,305.85c-9.44,0-17.84,1.83-24.95,5.44-7.04,3.57-12.66,8.45-16.72,14.52-4.02,5.99-5.97,12.77-5.97,20.73s1.79,13.99,5.47,19.48c3.71,5.55,8.95,9.75,16,12.87,7.27,3.22,16.07,4.85,26.17,4.85s18.66-1.62,25.81-4.83c6.96-3.12,12.15-7.34,15.87-12.89,3.68-5.5,5.47-11.87,5.47-19.48s-1.93-14.76-5.91-20.76c-4-6.06-9.59-10.92-16.62-14.49-7.12-3.61-15.41-5.44-24.62-5.44ZM90.86,196.84c-8.03,0-15.11,1.48-21.04,4.4-5.81,2.85-10.15,6.73-13.29,11.86-3.11,5.09-4.69,11.3-4.69,18.46s1.57,13.25,4.8,18.57c3.21,5.32,7.6,9.33,13.42,12.28,5.91,3,12.91,4.53,20.81,4.53s14.53-1.52,20.38-4.51c5.79-2.97,10.23-7.01,13.57-12.37,3.31-5.32,4.92-11.37,4.92-18.5s-1.56-13.27-4.76-18.43c-3.2-5.15-7.56-9.04-13.32-11.9-5.87-2.91-12.87-4.39-20.78-4.39Z"/><polygon points="556.79 420.16 556.79 207.94 495.32 252.48 495.32 203.61 555.13 160.57 600 160.57 600 420.16 556.79 420.16"/></svg>