<?xml version="1.0" encoding="UTF-8"?><svg id="Layer_1" xmlns="http://www.w3.org/2000/svg" viewBox="0 0 1000 240.37"><defs><style>.cls-1{fill:#0d1117;}.cls-2{fill:#2c4a7c;}</style></defs><path class="cls-1" d="M188.39,240.37c-43.68,0-79.22-35.54-79.22-79.22s35.54-79.22,79.22-79.22,79.22,35.54,79.22,79.22-35.54,79.22-79.22,79.22ZM188.39,103.1c-32.01,0-58.05,26.04-58.05,58.05s26.04,58.05,58.05,58.05,58.05-26.04,58.05-58.05-26.04-58.05-58.05-58.05Z"/><path class="cls-2" d="M142.4,66.18c27.6-21.89,69.55-23.05,96.47.59-34.46-14.27-61.75-12.97-96.47-.59h0Z"/><path class="cls-2" d="M145.53,161.15c-3.25-23.51,19.34-46.12,42.85-42.85-22.67,2.47-40.4,20.17-42.85,42.85h0Z"/><path class="cls-2" d="M37.52,51.42h0c.4-.97,9.93-23.72,28.06-23.72h58.75c0,3.94-3.19,7.13-7.13,7.13h-51.61c-8.46,0-15.58,3.82-20.64,8.17-3.41,2.94-4.47,4.56-7.42,8.41Z"/><path class="cls-2" d="M109.64,16.78h-28.95c0-3.94,3.19-7.13,7.13-7.13h14.69c3.94,0,7.13,3.19,7.13,7.13h0Z"/><path class="cls-2" d="M328.55,51.54c-1.83-11.31-13.39-19.64-24.84-18.93l-6.43-.22c-7.66-.27-27.05-.94-36.58-1.27L241.88,1.65l-1.05-1.65h-100.14c-3.94,0-7.13,3.19-7.13,7.13h0s103.37,0,103.37,0l18.77,29.4,1.09,1.71,1.91-.07c8.42-.29,30.44-1.05,38.58-1.34,0,0,6.43-.22,6.43-.22,10.23-1.27,20.44,4.92,23.1,15.31,1.43,7.06.91,18.04,1.44,25.48,0,0,.45-12.86.45-12.86-.01-3.89.73-9.15-.14-13.01Z"/><path class="cls-1" d="M50.35,234.78c-9.72,0-18.44-1.76-25.91-5.24-7.59-3.53-13.62-8.51-17.9-14.8-4.34-6.35-6.54-13.68-6.54-21.77,0-6.33,1.32-12.28,3.93-17.69,2.61-5.42,6.23-10,10.75-13.62,2.06-1.65,4.25-3.03,6.56-4.13-3.68-2.18-6.86-5.13-9.51-8.81-4.5-6.25-6.77-13.54-6.77-21.67,0-7.65,2.02-14.6,6-20.66,3.93-6,9.37-10.78,16.19-14.21,6.75-3.39,14.55-5.1,23.21-5.1s16.19,1.72,22.97,5.1c6.84,3.42,12.31,8.21,16.25,14.21,3.98,6.07,5.99,13.03,5.99,20.66,0,8.12-2.28,15.41-6.77,21.66-2.65,3.68-5.8,6.62-9.43,8.8,2.3,1.11,4.5,2.49,6.57,4.15,4.51,3.61,8.14,8.19,10.79,13.61,2.64,5.42,3.98,11.38,3.98,17.71,0,8.1-2.22,15.43-6.59,21.78-4.33,6.29-10.38,11.27-18,14.79-7.5,3.48-16.17,5.24-25.77,5.24ZM50.35,169.5c-5.23,0-9.88,1.01-13.83,3.01-3.9,1.98-7.02,4.68-9.27,8.04-2.23,3.32-3.31,7.08-3.31,11.49s.99,7.75,3.03,10.8c2.06,3.07,4.96,5.41,8.87,7.14,4.03,1.78,8.91,2.69,14.5,2.69s10.34-.9,14.3-2.68c3.86-1.73,6.74-4.07,8.8-7.15,2.04-3.05,3.03-6.58,3.03-10.8s-1.07-8.18-3.27-11.5c-2.22-3.36-5.32-6.05-9.21-8.03-3.94-2-8.54-3.01-13.65-3.01ZM50.35,109.08c-4.45,0-8.38.82-11.66,2.44-3.22,1.58-5.63,3.73-7.37,6.57-1.73,2.82-2.6,6.26-2.6,10.23s.87,7.34,2.66,10.29c1.78,2.95,4.21,5.17,7.43,6.81,3.28,1.66,7.16,2.51,11.53,2.51s8.05-.84,11.29-2.5c3.21-1.64,5.67-3.89,7.52-6.85,1.83-2.95,2.73-6.3,2.73-10.25s-.86-7.36-2.64-10.22c-1.77-2.85-4.19-5.01-7.38-6.59-3.26-1.61-7.13-2.43-11.52-2.43Z"/><polygon class="cls-1" points="308.56 232.85 308.56 115.24 274.5 139.92 274.5 112.83 307.65 88.99 332.51 88.99 332.51 232.85 308.56 232.85"/><path class="cls-1" d="M430.91,225.46l-48.92-133.02h17.67l28.21,79.19c1.61,4.46,3.61,10.44,6.03,17.94,2.41,7.5,5.28,16.78,8.61,27.85h-3.57c3.27-11.25,6.1-20.58,8.48-27.99,2.38-7.41,4.35-13.35,5.89-17.81l27.59-79.19h17.67l-48.39,133.02h-19.28Z"/><path class="cls-1" d="M532.31,92.43v133.02h-16.78V92.43h16.78Z"/><path class="cls-1" d="M603.18,227.78c-9.7,0-18.14-1.62-25.31-4.87-7.18-3.24-12.75-7.77-16.74-13.57-3.99-5.8-6.19-12.63-6.61-20.49h17.14c.36,5.3,1.96,9.72,4.82,13.26,2.86,3.54,6.62,6.19,11.29,7.95,4.67,1.75,9.81,2.63,15.4,2.63,6.13,0,11.59-.98,16.38-2.95,4.79-1.97,8.57-4.72,11.34-8.26,2.77-3.54,4.15-7.66,4.15-12.36,0-4.17-1.13-7.6-3.39-10.31-2.26-2.71-5.37-4.96-9.33-6.74-3.96-1.78-8.5-3.36-13.61-4.73l-15.8-4.38c-11.37-3.09-20.03-7.45-25.98-13.08-5.95-5.63-8.93-12.87-8.93-21.74,0-7.56,1.99-14.15,5.98-19.77,3.99-5.62,9.43-10,16.34-13.12,6.9-3.12,14.7-4.68,23.39-4.68s16.68,1.58,23.44,4.73c6.75,3.15,12.07,7.5,15.94,13.04,3.87,5.53,5.92,11.84,6.16,18.93h-16.43c-.72-6.9-3.78-12.26-9.2-16.07-5.41-3.81-12.23-5.71-20.44-5.71-5.71,0-10.74.95-15.09,2.86-4.35,1.91-7.72,4.49-10.13,7.77-2.41,3.27-3.61,7.02-3.61,11.25s1.32,7.9,3.97,10.67c2.65,2.77,5.95,4.98,9.91,6.65,3.96,1.67,7.9,3.04,11.83,4.11l13.66,3.66c4.22,1.07,8.54,2.52,12.94,4.33,4.4,1.82,8.48,4.12,12.23,6.92,3.75,2.8,6.79,6.28,9.11,10.44,2.32,4.17,3.48,9.17,3.48,15,0,7.38-1.92,13.99-5.76,19.82-3.84,5.84-9.36,10.43-16.56,13.79-7.2,3.36-15.86,5.05-25.98,5.05Z"/><path class="cls-1" d="M724.86,227.6c-10.42,0-19.54-2.05-27.37-6.16-7.83-4.11-13.88-9.73-18.17-16.87-4.28-7.14-6.43-15.27-6.43-24.37v-87.76h16.78v86.42c0,6.43,1.42,12.14,4.24,17.14,2.82,5,6.87,8.93,12.14,11.78,5.27,2.86,11.56,4.29,18.88,4.29s13.51-1.44,18.75-4.33c5.24-2.89,9.25-6.81,12.05-11.78,2.8-4.97,4.19-10.67,4.19-17.1v-86.42h16.79v87.76c0,9.11-2.15,17.23-6.43,24.37-4.28,7.14-10.31,12.77-18.08,16.87-7.77,4.11-16.89,6.16-27.36,6.16Z"/><path class="cls-1" d="M787.55,225.46l48.48-133.02h19.28l48.83,133.02h-17.67l-28.12-79.19c-1.78-5-3.82-11.08-6.11-18.26-2.29-7.17-5.08-16.38-8.35-27.63h3.48c-3.27,11.31-6.09,20.61-8.44,27.9-2.35,7.29-4.33,13.29-5.94,17.99l-27.67,79.19h-17.77ZM812.1,188.31v-14.73h67.58v14.73h-67.58Z"/><path class="cls-1" d="M921.08,225.46V92.43h16.78v118.2h62.14v14.82h-78.92Z"/></svg>